<?xml version="1.0" encoding="utf-8"?>
<!-- Generator: Adobe Illustrator 17.1.0, SVG Export Plug-In . SVG Version: 6.00 Build 0)  -->
<!DOCTYPE svg PUBLIC "-//W3C//DTD SVG 1.1//EN" "http://www.w3.org/Graphics/SVG/1.1/DTD/svg11.dtd">
<svg version="1.1" xmlns="http://www.w3.org/2000/svg" xmlns:xlink="http://www.w3.org/1999/xlink" x="0px" y="0px"
	 viewBox="0 0 116 122" enable-background="new 0 0 116 122" xml:space="preserve">
<g id="Layer_1" display="none">
	<g display="inline">
		<path fill-rule="evenodd" clip-rule="evenodd" fill="#FFFFFF" d="M34.661,56.799c1.561-0.042,3.123-0.013,4.687-0.013
			c1.714-0.002,3.43,0.061,5.137-0.141c1.366-0.161,2.61-0.587,3.414-1.806c1.994-3.025,0.221-7.132-3.337-7.602
			c-3.414-0.452-6.847,0.033-10.271-0.052c-0.584-0.015-0.668,0.32-0.66,0.808c0.045,2.629,0.084,5.258,0.092,7.886
			C33.726,56.561,33.962,56.817,34.661,56.799z"/>
		<path fill-rule="evenodd" clip-rule="evenodd" fill="#FFFFFF" d="M45.747,63.939c-2.079-0.358-4.177-0.142-7.007-0.262
			c-0.933,0-2.608,0.036-4.28-0.018c-0.692-0.022-0.948,0.157-0.943,0.873c0.027,3.158,0.026,6.316,0,9.474
			c-0.005,0.696,0.236,0.917,0.927,0.91c3.12-0.031,6.241-0.001,9.361-0.029c0.718-0.006,1.446-0.103,2.15-0.253
			c2.868-0.613,4.382-2.676,4.333-5.841C50.248,66.18,48.615,64.432,45.747,63.939z"/>
		<path fill-rule="evenodd" clip-rule="evenodd" fill="#FFFFFF" d="M80.218,57.488c-4.018-1.412-8.208,0.954-9.126,5.108
			c-0.17,0.768-0.035,1.005,0.763,0.988c1.938-0.041,3.877-0.013,5.815-0.013c1.901-0.001,3.801-0.001,5.702,0
			c0.472,0.001,0.879,0.042,0.838-0.694C84.081,60.618,82.358,58.24,80.218,57.488z"/>
		<path fill-rule="evenodd" clip-rule="evenodd" fill="#FFFFFF" d="M58.563,4C26.841,4,1.125,29.715,1.125,61.437
			c0,31.721,25.715,57.437,57.438,57.437c31.721,0,57.437-25.716,57.437-57.437C116,29.715,90.284,4,58.563,4z M69.096,42.783
			c0.651-0.62,2.035-0.159,3.094-0.173c1.787-0.024,3.576-0.006,5.363-0.006c2.51,0,5.022,0.023,7.532-0.014
			c0.753-0.01,1.063,0.166,1.075,1.001c0.048,3.36,0.076,3.36-3.271,3.36c-4.337,0-8.673-0.017-13.009,0.015
			c-0.772,0.006-1.125-0.179-1.034-1.007C68.968,44.875,68.382,43.464,69.096,42.783z M59.475,71.497
			c-0.76,4.814-3.385,8.166-8.156,9.598c-2.723,0.817-5.546,0.95-8.37,0.955c-5.754,0.01-11.509-0.014-17.264,0.022
			c-0.849,0.005-1.094-0.223-1.096-1.083c-0.016-13.338-0.059-26.676-0.127-40.014c-0.005-0.842,0.196-1.101,1.067-1.086
			c7.085,0.12,14.171,0.177,21.256,0.288c1.449,0.023,2.882,0.284,4.257,0.763c4.029,1.405,6.183,4.304,6.548,8.501
			c0.353,4.062-0.943,7.352-4.732,9.355c-0.187,0.099-0.458,0.133-0.513,0.474c0.648,0.334,1.346,0.624,1.971,1.028
			C58.394,62.937,60.237,66.665,59.475,71.497z M91.269,68.866c-3.198-0.098-6.402-0.033-9.603-0.033
			c-3.239,0-6.479,0.023-9.717-0.015c-0.825-0.01-1.15,0.156-1.046,1.076c0.377,3.37,2.159,5.742,4.946,6.446
			c3.338,0.843,6.66-0.39,8.479-3.19c0.218-0.336,0.424-0.479,0.807-0.477c2.057,0.009,4.116,0.022,6.173-0.004
			c0.935-0.012,0.619,0.494,0.452,0.955c-1.693,4.676-4.847,7.804-9.765,8.864c-4.215,0.907-8.35,0.393-12.271-1.398
			c-2.885-1.319-4.996-3.498-6.153-6.463c-1.985-5.087-2.061-10.19,0.267-15.201c2.501-5.382,6.862-8.09,12.697-8.483
			c3.035-0.203,6.024,0.112,8.79,1.514c4.568,2.316,6.432,6.378,7.072,11.179c0.165,1.243,0.122,2.511,0.261,3.758
			C92.782,68.499,92.484,68.903,91.269,68.866z"/>
	</g>
</g>
<g id="Layer_2">
	<g>
		<path fill-rule="evenodd" clip-rule="evenodd" fill="#FFFFFF" d="M58.315,64.773H49.51v13.894h8.838
			c7.35,0,7.778-5.171,7.778-6.989C66.126,69.991,65.493,64.773,58.315,64.773z"/>
		<path fill-rule="evenodd" clip-rule="evenodd" fill="#FFFFFF" d="M63.498,49.543c0-1.66-1.037-5.295-6.18-5.295H49.51v10.825
			h7.709C62.923,55.073,63.498,51.335,63.498,49.543z"/>
		<path fill-rule="evenodd" clip-rule="evenodd" fill="#FFFFFF" d="M58,3.5C26.244,3.5,0.5,29.244,0.5,61s25.744,57.5,57.5,57.5
			s57.5-25.744,57.5-57.5S89.756,3.5,58,3.5z M61.472,88.153h-25.98V33.847h25.325c14.334,0,17.432,10.189,17.432,14.213
			c0,8.136-4.614,10.217-6.917,11.152c3.499,0.987,9.177,3.972,9.177,14.32C80.508,76.49,80.135,88.153,61.472,88.153z"/>
	</g>
</g>
</svg>
