<?xml version="1.0" encoding="utf-8"?>
<!-- Generator: Adobe Illustrator 17.1.0, SVG Export Plug-In . SVG Version: 6.00 Build 0)  -->
<!DOCTYPE svg PUBLIC "-//W3C//DTD SVG 1.1//EN" "http://www.w3.org/Graphics/SVG/1.1/DTD/svg11.dtd">
<svg version="1.1" xmlns="http://www.w3.org/2000/svg" xmlns:xlink="http://www.w3.org/1999/xlink" x="0px" y="0px"
	 viewBox="0 0 116 122" enable-background="new 0 0 116 122" xml:space="preserve">
<g id="Layer_1" display="none">
	<g display="inline">
		<path fill-rule="evenodd" clip-rule="evenodd" fill="#FFFFFF" d="M34.661,56.799c1.561-0.042,3.123-0.013,4.687-0.013
			c1.714-0.002,3.43,0.061,5.137-0.141c1.366-0.161,2.61-0.587,3.414-1.806c1.994-3.025,0.221-7.132-3.337-7.602
			c-3.414-0.452-6.847,0.033-10.271-0.052c-0.584-0.015-0.668,0.32-0.66,0.808c0.045,2.629,0.084,5.258,0.092,7.886
			C33.726,56.561,33.962,56.817,34.661,56.799z"/>
		<path fill-rule="evenodd" clip-rule="evenodd" fill="#FFFFFF" d="M45.747,63.939c-2.079-0.358-4.177-0.142-7.007-0.262
			c-0.933,0-2.608,0.036-4.28-0.018c-0.692-0.022-0.948,0.157-0.943,0.873c0.027,3.158,0.026,6.316,0,9.474
			c-0.005,0.696,0.236,0.917,0.927,0.91c3.12-0.031,6.241-0.001,9.361-0.029c0.718-0.006,1.446-0.103,2.15-0.253
			c2.868-0.613,4.382-2.676,4.333-5.841C50.248,66.18,48.615,64.432,45.747,63.939z"/>
		<path fill-rule="evenodd" clip-rule="evenodd" fill="#FFFFFF" d="M80.218,57.488c-4.018-1.412-8.208,0.954-9.126,5.108
			c-0.17,0.768-0.035,1.005,0.763,0.988c1.938-0.041,3.877-0.013,5.815-0.013c1.901-0.001,3.801-0.001,5.702,0
			c0.472,0.001,0.879,0.042,0.838-0.694C84.081,60.618,82.358,58.24,80.218,57.488z"/>
		<path fill-rule="evenodd" clip-rule="evenodd" fill="#FFFFFF" d="M58.563,4C26.841,4,1.125,29.715,1.125,61.437
			c0,31.721,25.715,57.437,57.438,57.437c31.721,0,57.437-25.716,57.437-57.437C116,29.715,90.284,4,58.563,4z M69.096,42.783
			c0.651-0.62,2.035-0.159,3.094-0.173c1.787-0.024,3.576-0.006,5.363-0.006c2.51,0,5.022,0.023,7.532-0.014
			c0.753-0.01,1.063,0.166,1.075,1.001c0.048,3.36,0.076,3.36-3.271,3.36c-4.337,0-8.673-0.017-13.009,0.015
			c-0.772,0.006-1.125-0.179-1.034-1.007C68.968,44.875,68.382,43.464,69.096,42.783z M59.475,71.497
			c-0.76,4.814-3.385,8.166-8.156,9.598c-2.723,0.817-5.546,0.95-8.37,0.955c-5.754,0.01-11.509-0.014-17.264,0.022
			c-0.849,0.005-1.094-0.223-1.096-1.083c-0.016-13.338-0.059-26.676-0.127-40.014c-0.005-0.842,0.196-1.101,1.067-1.086
			c7.085,0.12,14.171,0.177,21.256,0.288c1.449,0.023,2.882,0.284,4.257,0.763c4.029,1.405,6.183,4.304,6.548,8.501
			c0.353,4.062-0.943,7.352-4.732,9.355c-0.187,0.099-0.458,0.133-0.513,0.474c0.648,0.334,1.346,0.624,1.971,1.028
			C58.394,62.937,60.237,66.665,59.475,71.497z M91.269,68.866c-3.198-0.098-6.402-0.033-9.603-0.033
			c-3.239,0-6.479,0.023-9.717-0.015c-0.825-0.01-1.15,0.156-1.046,1.076c0.377,3.37,2.159,5.742,4.946,6.446
			c3.338,0.843,6.66-0.39,8.479-3.19c0.218-0.336,0.424-0.479,0.807-0.477c2.057,0.009,4.116,0.022,6.173-0.004
			c0.935-0.012,0.619,0.494,0.452,0.955c-1.693,4.676-4.847,7.804-9.765,8.864c-4.215,0.907-8.35,0.393-12.271-1.398
			c-2.885-1.319-4.996-3.498-6.153-6.463c-1.985-5.087-2.061-10.19,0.267-15.201c2.501-5.382,6.862-8.09,12.697-8.483
			c3.035-0.203,6.024,0.112,8.79,1.514c4.568,2.316,6.432,6.378,7.072,11.179c0.165,1.243,0.122,2.511,0.261,3.758
			C92.782,68.499,92.484,68.903,91.269,68.866z"/>
	</g>
</g>
<g id="Layer_2">
	<g>
		<path fill="#FEFEFE" d="M58.666,2.003c31.607,0,57.055,25.529,57.06,57.117c0.005,31.8-26.209,57.596-58.15,57.027
			C26.517,115.595,0.897,89.824,1.559,57.823C2.199,26.929,27.621,1.838,58.666,2.003z M52.992,97.946
			c0.864,0,1.493,0.054,2.11-0.009c3.123-0.322,4.183-1.514,4.183-4.65c0-3.923-0.015-7.846,0.023-11.768
			c0.004-0.418,0.318-0.833,0.488-1.249c0.215,0.417,0.61,0.831,0.615,1.25c0.048,3.784,0.027,7.568,0.029,11.353
			c0.001,3.696,2.053,5.459,5.718,5.048c-0.286-0.919-0.812-1.851-0.829-2.793c-0.087-4.66-0.042-9.322-0.035-13.983
			c0-0.214,0.074-0.428,0.124-0.698c1.101,0.123,1.116,0.861,1.116,1.614c-0.001,3.784,0.02,7.569-0.012,11.353
			c-0.01,1.216,0.39,2.183,1.414,2.82c1.515,0.943,3.179,1.276,5.326,1.103c-1.922-1.347-1.921-3.086-1.895-4.873
			c0.045-3.091-0.041-6.185,0.026-9.276c0.076-3.507,0.062-6.96-2.684-9.685c0.234-0.12,0.308-0.18,0.391-0.198
			c0.856-0.183,1.72-0.336,2.571-0.543c5.783-1.405,10.827-3.906,13.957-9.314c0.205-0.353,0.889-0.647,1.324-0.615
			c3.807,0.283,7.607,0.65,11.41,0.984c0.349,0.031,0.703,0.004,1.055,0.004c0.005-0.132,0.01-0.264,0.015-0.396
			c-4.223-1.238-8.604-1.301-13.051-1.646c0.417-0.507,0.896-0.924,1.38-0.929c3.777-0.038,7.555,0.006,11.332,0.017
			c0.446,0.001,0.893-0.044,1.339-0.067c-0.007-0.176-0.014-0.351-0.021-0.527c-4.418,0-8.837,0-13.17,0
			c-0.095-0.308-0.126-0.354-0.118-0.391c0.093-0.449,0.193-0.896,0.288-1.345c1.491-7.055,0.547-13.675-3.671-19.643
			c-0.717-1.014-0.969-1.943-0.875-3.163c0.251-3.231-0.081-6.411-1.22-9.445c-3.324,0-7.846,1.549-11.404,3.72
			c-0.62,0.379-1.548,0.543-2.269,0.421c-6.202-1.042-12.384-1.101-18.578,0.057c-0.556,0.104-1.233-0.09-1.776-0.325
			c-2.403-1.036-4.731-2.263-7.179-3.167c-1.459-0.539-3.091-0.607-4.654-0.887c-1.136,3.85-1.423,7.428-0.72,11.089
			c0.112,0.586,0.013,1.422-0.341,1.855c-3.4,4.16-4.644,8.959-4.253,14.212c0.168,2.26,0.628,4.497,0.963,6.795
			c-4.276-0.016-8.609-0.306-12.894,0.557c0.456,0.254,0.906,0.255,1.356,0.253c3.731-0.016,7.462-0.027,11.193-0.052
			c0.804-0.005,1.307,0.259,1.271,1.283c-4.356-0.015-8.669,0.126-12.823,1.551c0.387,0.198,0.756,0.186,1.123,0.154
			c3.803-0.332,7.605-0.683,11.412-0.977c0.381-0.029,0.977,0.166,1.157,0.455c3.351,5.373,8.555,7.78,14.441,9.106
			C48.853,72.652,50.06,72.829,51,73c-1.148,2.005-2.27,3.965-3.443,6.014c-4.621,0.868-8.805-0.369-12.17-4.209
			c-0.831-0.948-1.946-1.727-3.071-2.316c-0.996-0.521-2.187-0.668-3.392-1.009c1.326,1.631,2.524,2.96,3.55,4.411
			c0.847,1.199,1.496,2.539,2.223,3.821c2.103,3.711,5.229,5.586,9.547,5.391c1.312-0.059,2.629-0.009,4.01-0.009
			c0,2.487,0.017,4.745-0.005,7.004c-0.019,1.933,0.396,3.959-1.288,5.595c3.845,0.435,6.002-1.411,6.002-4.926
			c0-3.507,0.001-7.015-0.001-10.522c0-0.786-0.001-1.566,1.18-1.765c0.026,0.585,0.065,1.076,0.066,1.567
			c0.005,3.83-0.013,7.661,0.011,11.491C54.227,95.063,54.293,96.579,52.992,97.946z"/>
	</g>
</g>
</svg>
