<?xml version="1.0" encoding="utf-8"?>
<!-- Generator: Adobe Illustrator 17.1.0, SVG Export Plug-In . SVG Version: 6.00 Build 0)  -->
<!DOCTYPE svg PUBLIC "-//W3C//DTD SVG 1.1//EN" "http://www.w3.org/Graphics/SVG/1.1/DTD/svg11.dtd">
<svg version="1.1" id="Layer_1" xmlns="http://www.w3.org/2000/svg" xmlns:xlink="http://www.w3.org/1999/xlink" x="0px" y="0px"
	 viewBox="0 0 105.279 119.438" enable-background="new 0 0 105.279 119.438" xml:space="preserve">
<g>
	<path fill="#222222" d="M0,0l9.363,107.563l43.276,11.875l43.276-11.875L105.279,0H0z"/>
</g>
<polygon fill="#3C3C3C" points="68.93,61.377 52.639,61.377 52.639,82.71 67.239,79.169 "/>
<polygon fill="#3C3C3C" points="52.639,8.906 52.639,110.803 88.104,100.565 96.458,8.906 "/>
<g>
	<polygon fill="#EBEBEB" points="22.235,48.54 23.446,61.377 52.639,61.377 52.639,48.54 	"/>
	<polygon fill="#EBEBEB" points="52.38,82.773 37.927,79.169 37.081,68.584 24.127,68.584 26.137,89.888 52.639,97.136 
		52.639,82.71 	"/>
	<polygon fill="#EBEBEB" points="19.748,22.189 20.981,35.252 52.639,35.252 52.639,22.189 	"/>
</g>
<polygon fill="#FFFFFF" points="79.755,89.888 86.144,22.189 79.755,22.189 52.639,22.189 52.639,35.252 71.176,35.252 
	69.599,48.54 52.639,48.54 52.639,61.377 68.93,61.377 67.239,79.169 52.639,82.71 52.639,97.136 53.05,97.248 "/>
</svg>
